<mxfile host="app.diagrams.net" modified="2023-11-04T16:31:15.242Z" agent="Mozilla/5.0 (Windows NT 10.0; Win64; x64) AppleWebKit/537.36 (KHTML, like Gecko) Chrome/118.0.0.0 Safari/537.36" version="22.0.8" etag="sU-Opeccc8d6sa7BLGe_" type="github">
  <diagram name="Page-1" id="MBSI7JfDvF1NO_UZfI-D">
    <mxGraphModel>
      <root>
        <mxCell id="0" />
        <mxCell id="1" parent="0" />
      </root>
    </mxGraphModel>
  </diagram>
</mxfile>
